<svg xmlns="http://www.w3.org/2000/svg" xmlns:xlink="http://www.w3.org/1999/xlink" width="500" zoomAndPan="magnify" viewBox="0 0 375 374.999991" height="500" preserveAspectRatio="xMidYMid meet" version="1.0"><defs><clipPath id="41bc2ed044"><path d="M 187.5 0 C 83.945312 0 0 83.945312 0 187.5 C 0 291.054688 83.945312 375 187.5 375 C 291.054688 375 375 291.054688 375 187.5 C 375 83.945312 291.054688 0 187.5 0 Z M 187.5 0 " clip-rule="nonzero"/></clipPath><radialGradient gradientTransform="matrix(1, 0, 0, 1, 0.0000045, 0)" gradientUnits="userSpaceOnUse" r="265.164544" cx="187.499995" id="1c0244112f" cy="187.499995" fx="187.499995" fy="187.499995"><stop stop-opacity="1" stop-color="rgb(52.377319%, 62.217712%, 66.130066%)" offset="0"/><stop stop-opacity="1" stop-color="rgb(52.163696%, 61.90033%, 65.835571%)" offset="0.015625"/><stop stop-opacity="1" stop-color="rgb(51.980591%, 61.628723%, 65.582275%)" offset="0.0273438"/><stop stop-opacity="1" stop-color="rgb(51.799011%, 61.357117%, 65.328979%)" offset="0.0390625"/><stop stop-opacity="1" stop-color="rgb(51.615906%, 61.08551%, 65.075684%)" offset="0.0507812"/><stop stop-opacity="1" stop-color="rgb(51.4328%, 60.813904%, 64.822388%)" offset="0.0625"/><stop stop-opacity="1" stop-color="rgb(51.249695%, 60.540771%, 64.569092%)" offset="0.0742188"/><stop stop-opacity="1" stop-color="rgb(51.066589%, 60.269165%, 64.315796%)" offset="0.0859375"/><stop stop-opacity="1" stop-color="rgb(50.88501%, 59.997559%, 64.0625%)" offset="0.0976562"/><stop stop-opacity="1" stop-color="rgb(50.701904%, 59.725952%, 63.81073%)" offset="0.109375"/><stop stop-opacity="1" stop-color="rgb(50.518799%, 59.454346%, 63.557434%)" offset="0.121094"/><stop stop-opacity="1" stop-color="rgb(50.335693%, 59.181213%, 63.304138%)" offset="0.132812"/><stop stop-opacity="1" stop-color="rgb(50.152588%, 58.909607%, 63.050842%)" offset="0.144531"/><stop stop-opacity="1" stop-color="rgb(49.969482%, 58.638%, 62.797546%)" offset="0.15625"/><stop stop-opacity="1" stop-color="rgb(49.787903%, 58.366394%, 62.54425%)" offset="0.167969"/><stop stop-opacity="1" stop-color="rgb(49.604797%, 58.094788%, 62.290955%)" offset="0.179688"/><stop stop-opacity="1" stop-color="rgb(49.421692%, 57.823181%, 62.037659%)" offset="0.191406"/><stop stop-opacity="1" stop-color="rgb(49.238586%, 57.550049%, 61.784363%)" offset="0.203125"/><stop stop-opacity="1" stop-color="rgb(49.055481%, 57.278442%, 61.532593%)" offset="0.214844"/><stop stop-opacity="1" stop-color="rgb(48.873901%, 57.006836%, 61.279297%)" offset="0.226562"/><stop stop-opacity="1" stop-color="rgb(48.690796%, 56.735229%, 61.026001%)" offset="0.238281"/><stop stop-opacity="1" stop-color="rgb(48.50769%, 56.463623%, 60.772705%)" offset="0.25"/><stop stop-opacity="1" stop-color="rgb(48.355103%, 56.236267%, 60.560608%)" offset="0.261719"/><stop stop-opacity="1" stop-color="rgb(48.233032%, 56.054688%, 60.392761%)" offset="0.269531"/><stop stop-opacity="1" stop-color="rgb(48.110962%, 55.873108%, 60.223389%)" offset="0.277344"/><stop stop-opacity="1" stop-color="rgb(47.990417%, 55.693054%, 60.055542%)" offset="0.285156"/><stop stop-opacity="1" stop-color="rgb(47.868347%, 55.511475%, 59.886169%)" offset="0.292969"/><stop stop-opacity="1" stop-color="rgb(47.746277%, 55.329895%, 59.716797%)" offset="0.300781"/><stop stop-opacity="1" stop-color="rgb(47.624207%, 55.148315%, 59.54895%)" offset="0.308594"/><stop stop-opacity="1" stop-color="rgb(47.502136%, 54.966736%, 59.379578%)" offset="0.316406"/><stop stop-opacity="1" stop-color="rgb(47.380066%, 54.786682%, 59.211731%)" offset="0.324219"/><stop stop-opacity="1" stop-color="rgb(47.257996%, 54.605103%, 59.042358%)" offset="0.332031"/><stop stop-opacity="1" stop-color="rgb(47.135925%, 54.423523%, 58.874512%)" offset="0.339844"/><stop stop-opacity="1" stop-color="rgb(47.015381%, 54.241943%, 58.705139%)" offset="0.347656"/><stop stop-opacity="1" stop-color="rgb(46.893311%, 54.06189%, 58.535767%)" offset="0.355469"/><stop stop-opacity="1" stop-color="rgb(46.77124%, 53.88031%, 58.36792%)" offset="0.363281"/><stop stop-opacity="1" stop-color="rgb(46.64917%, 53.69873%, 58.198547%)" offset="0.371094"/><stop stop-opacity="1" stop-color="rgb(46.466064%, 53.427124%, 57.945251%)" offset="0.378906"/><stop stop-opacity="1" stop-color="rgb(46.221924%, 53.063965%, 57.608032%)" offset="0.394531"/><stop stop-opacity="1" stop-color="rgb(45.979309%, 52.702332%, 57.270813%)" offset="0.410156"/><stop stop-opacity="1" stop-color="rgb(45.735168%, 52.339172%, 56.933594%)" offset="0.425781"/><stop stop-opacity="1" stop-color="rgb(45.491028%, 51.977539%, 56.594849%)" offset="0.441406"/><stop stop-opacity="1" stop-color="rgb(45.246887%, 51.61438%, 56.257629%)" offset="0.457031"/><stop stop-opacity="1" stop-color="rgb(45.004272%, 51.252747%, 55.92041%)" offset="0.472656"/><stop stop-opacity="1" stop-color="rgb(44.760132%, 50.889587%, 55.583191%)" offset="0.488281"/><stop stop-opacity="1" stop-color="rgb(44.546509%, 50.572205%, 55.288696%)" offset="0.503906"/><stop stop-opacity="1" stop-color="rgb(44.363403%, 50.300598%, 55.0354%)" offset="0.515625"/><stop stop-opacity="1" stop-color="rgb(44.181824%, 50.028992%, 54.782104%)" offset="0.527344"/><stop stop-opacity="1" stop-color="rgb(43.998718%, 49.757385%, 54.528809%)" offset="0.539062"/><stop stop-opacity="1" stop-color="rgb(43.815613%, 49.485779%, 54.275513%)" offset="0.550781"/><stop stop-opacity="1" stop-color="rgb(43.632507%, 49.212646%, 54.022217%)" offset="0.5625"/><stop stop-opacity="1" stop-color="rgb(43.449402%, 48.94104%, 53.768921%)" offset="0.574219"/><stop stop-opacity="1" stop-color="rgb(43.267822%, 48.669434%, 53.515625%)" offset="0.585938"/><stop stop-opacity="1" stop-color="rgb(43.084717%, 48.397827%, 53.263855%)" offset="0.597656"/><stop stop-opacity="1" stop-color="rgb(42.901611%, 48.126221%, 53.010559%)" offset="0.609375"/><stop stop-opacity="1" stop-color="rgb(42.718506%, 47.853088%, 52.757263%)" offset="0.621094"/><stop stop-opacity="1" stop-color="rgb(42.565918%, 47.627258%, 52.545166%)" offset="0.632812"/><stop stop-opacity="1" stop-color="rgb(42.443848%, 47.445679%, 52.377319%)" offset="0.640625"/><stop stop-opacity="1" stop-color="rgb(42.323303%, 47.264099%, 52.207947%)" offset="0.648438"/><stop stop-opacity="1" stop-color="rgb(42.201233%, 47.08252%, 52.0401%)" offset="0.65625"/><stop stop-opacity="1" stop-color="rgb(42.079163%, 46.902466%, 51.870728%)" offset="0.664062"/><stop stop-opacity="1" stop-color="rgb(41.957092%, 46.720886%, 51.701355%)" offset="0.671875"/><stop stop-opacity="1" stop-color="rgb(41.835022%, 46.539307%, 51.533508%)" offset="0.679688"/><stop stop-opacity="1" stop-color="rgb(41.712952%, 46.357727%, 51.364136%)" offset="0.6875"/><stop stop-opacity="1" stop-color="rgb(41.529846%, 46.086121%, 51.11084%)" offset="0.695312"/><stop stop-opacity="1" stop-color="rgb(41.287231%, 45.724487%, 50.773621%)" offset="0.710938"/><stop stop-opacity="1" stop-color="rgb(41.043091%, 45.361328%, 50.436401%)" offset="0.726562"/><stop stop-opacity="1" stop-color="rgb(40.79895%, 44.998169%, 50.099182%)" offset="0.742188"/><stop stop-opacity="1" stop-color="rgb(40.585327%, 44.682312%, 49.803162%)" offset="0.757812"/><stop stop-opacity="1" stop-color="rgb(40.403748%, 44.410706%, 49.551392%)" offset="0.769531"/><stop stop-opacity="1" stop-color="rgb(40.220642%, 44.137573%, 49.298096%)" offset="0.78125"/><stop stop-opacity="1" stop-color="rgb(40.037537%, 43.865967%, 49.0448%)" offset="0.792969"/><stop stop-opacity="1" stop-color="rgb(39.854431%, 43.59436%, 48.791504%)" offset="0.804688"/><stop stop-opacity="1" stop-color="rgb(39.701843%, 43.367004%, 48.579407%)" offset="0.816406"/><stop stop-opacity="1" stop-color="rgb(39.579773%, 43.185425%, 48.41156%)" offset="0.824219"/><stop stop-opacity="1" stop-color="rgb(39.459229%, 43.005371%, 48.242188%)" offset="0.832031"/><stop stop-opacity="1" stop-color="rgb(39.337158%, 42.823792%, 48.074341%)" offset="0.839844"/><stop stop-opacity="1" stop-color="rgb(39.154053%, 42.552185%, 47.821045%)" offset="0.847656"/><stop stop-opacity="1" stop-color="rgb(38.909912%, 42.189026%, 47.4823%)" offset="0.863281"/><stop stop-opacity="1" stop-color="rgb(38.696289%, 41.873169%, 47.187805%)" offset="0.878906"/><stop stop-opacity="1" stop-color="rgb(38.513184%, 41.600037%, 46.934509%)" offset="0.890625"/><stop stop-opacity="1" stop-color="rgb(38.331604%, 41.32843%, 46.681213%)" offset="0.902344"/><stop stop-opacity="1" stop-color="rgb(38.179016%, 41.101074%, 46.470642%)" offset="0.914062"/><stop stop-opacity="1" stop-color="rgb(38.056946%, 40.921021%, 46.30127%)" offset="0.921875"/><stop stop-opacity="1" stop-color="rgb(37.87384%, 40.649414%, 46.047974%)" offset="0.929688"/><stop stop-opacity="1" stop-color="rgb(37.660217%, 40.332031%, 45.753479%)" offset="0.945312"/><stop stop-opacity="1" stop-color="rgb(37.509155%, 40.104675%, 45.542908%)" offset="0.957031"/><stop stop-opacity="1" stop-color="rgb(37.32605%, 39.833069%, 45.289612%)" offset="0.964844"/><stop stop-opacity="1" stop-color="rgb(37.142944%, 39.561462%, 45.036316%)" offset="0.980469"/><stop stop-opacity="1" stop-color="rgb(36.990356%, 39.335632%, 44.825745%)" offset="0.988281"/><stop stop-opacity="1" stop-color="rgb(36.898804%, 39.199829%, 44.699097%)" offset="1"/></radialGradient><clipPath id="0a6cd610b7"><path d="M 166.109375 17.238281 L 207.359375 17.238281 L 207.359375 116.988281 L 166.109375 116.988281 Z M 166.109375 17.238281 " clip-rule="nonzero"/></clipPath><clipPath id="5aa328e9e5"><path d="M 166.109375 139.570312 L 207.359375 139.570312 L 207.359375 239.320312 L 166.109375 239.320312 Z M 166.109375 139.570312 " clip-rule="nonzero"/></clipPath><clipPath id="94554bdf88"><path d="M 166.109375 261.964844 L 207.359375 261.964844 L 207.359375 361.714844 L 166.109375 361.714844 Z M 166.109375 261.964844 " clip-rule="nonzero"/></clipPath></defs><g clip-path="url(#41bc2ed044)"><rect x="-37.5" fill="url(#1c0244112f)" width="450" y="-37.499999" height="449.999989"/></g><g clip-path="url(#0a6cd610b7)"><path fill="#ffa69e" d="M 166.140625 109.882812 L 166.140625 24.152344 C 166.140625 23.6875 166.1875 23.226562 166.277344 22.769531 C 166.367188 22.308594 166.503906 21.867188 166.683594 21.433594 C 166.859375 21.003906 167.078125 20.59375 167.339844 20.207031 C 167.597656 19.820312 167.890625 19.460938 168.222656 19.128906 C 168.550781 18.800781 168.910156 18.507812 169.296875 18.246094 C 169.6875 17.988281 170.097656 17.769531 170.527344 17.589844 C 170.957031 17.410156 171.402344 17.277344 171.859375 17.1875 C 172.316406 17.09375 172.777344 17.050781 173.246094 17.050781 L 200.21875 17.050781 C 200.6875 17.050781 201.148438 17.09375 201.605469 17.1875 C 202.0625 17.277344 202.507812 17.410156 202.9375 17.589844 C 203.371094 17.769531 203.777344 17.988281 204.167969 18.246094 C 204.554688 18.507812 204.914062 18.800781 205.242188 19.128906 C 205.574219 19.460938 205.867188 19.820312 206.125 20.207031 C 206.386719 20.59375 206.605469 21.003906 206.78125 21.433594 C 206.960938 21.867188 207.097656 22.308594 207.1875 22.769531 C 207.277344 23.226562 207.324219 23.6875 207.324219 24.152344 L 207.324219 109.882812 C 207.324219 110.347656 207.277344 110.8125 207.1875 111.269531 C 207.097656 111.726562 206.960938 112.171875 206.78125 112.601562 C 206.605469 113.03125 206.386719 113.441406 206.125 113.828125 C 205.867188 114.21875 205.574219 114.578125 205.242188 114.90625 C 204.914062 115.234375 204.554688 115.53125 204.167969 115.789062 C 203.777344 116.050781 203.371094 116.269531 202.9375 116.445312 C 202.507812 116.625 202.0625 116.757812 201.605469 116.851562 C 201.148438 116.941406 200.6875 116.988281 200.21875 116.988281 L 173.246094 116.988281 C 172.777344 116.988281 172.316406 116.941406 171.859375 116.851562 C 171.402344 116.757812 170.957031 116.625 170.527344 116.445312 C 170.097656 116.269531 169.6875 116.050781 169.296875 115.789062 C 168.910156 115.53125 168.550781 115.234375 168.222656 114.90625 C 167.890625 114.578125 167.597656 114.21875 167.339844 113.828125 C 167.078125 113.441406 166.859375 113.03125 166.683594 112.601562 C 166.503906 112.171875 166.367188 111.726562 166.277344 111.269531 C 166.1875 110.8125 166.140625 110.347656 166.140625 109.882812 Z M 166.140625 109.882812 " fill-opacity="1" fill-rule="nonzero"/></g><g clip-path="url(#5aa328e9e5)"><path fill="#ffa69e" d="M 166.140625 232.214844 L 166.140625 146.484375 C 166.140625 146.019531 166.1875 145.558594 166.277344 145.101562 C 166.367188 144.640625 166.503906 144.199219 166.683594 143.765625 C 166.859375 143.335938 167.078125 142.925781 167.339844 142.539062 C 167.597656 142.152344 167.890625 141.792969 168.222656 141.460938 C 168.550781 141.132812 168.910156 140.839844 169.296875 140.578125 C 169.6875 140.320312 170.097656 140.101562 170.527344 139.921875 C 170.957031 139.742188 171.402344 139.609375 171.859375 139.519531 C 172.316406 139.425781 172.777344 139.382812 173.246094 139.382812 L 200.21875 139.382812 C 200.6875 139.382812 201.148438 139.425781 201.605469 139.519531 C 202.0625 139.609375 202.507812 139.742188 202.9375 139.921875 C 203.371094 140.101562 203.777344 140.320312 204.167969 140.578125 C 204.554688 140.839844 204.914062 141.132812 205.242188 141.460938 C 205.574219 141.792969 205.867188 142.152344 206.125 142.539062 C 206.386719 142.925781 206.605469 143.335938 206.78125 143.765625 C 206.960938 144.199219 207.097656 144.640625 207.1875 145.101562 C 207.277344 145.558594 207.324219 146.019531 207.324219 146.484375 L 207.324219 232.214844 C 207.324219 232.679688 207.277344 233.144531 207.1875 233.601562 C 207.097656 234.058594 206.960938 234.503906 206.78125 234.933594 C 206.605469 235.363281 206.386719 235.773438 206.125 236.160156 C 205.867188 236.550781 205.574219 236.910156 205.242188 237.238281 C 204.914062 237.566406 204.554688 237.863281 204.167969 238.121094 C 203.777344 238.382812 203.371094 238.601562 202.9375 238.777344 C 202.507812 238.957031 202.0625 239.089844 201.605469 239.183594 C 201.148438 239.273438 200.6875 239.320312 200.21875 239.320312 L 173.246094 239.320312 C 172.777344 239.320312 172.316406 239.273438 171.859375 239.183594 C 171.402344 239.089844 170.957031 238.957031 170.527344 238.777344 C 170.097656 238.601562 169.6875 238.382812 169.296875 238.121094 C 168.910156 237.863281 168.550781 237.566406 168.222656 237.238281 C 167.890625 236.910156 167.597656 236.550781 167.339844 236.160156 C 167.078125 235.773438 166.859375 235.363281 166.683594 234.933594 C 166.503906 234.503906 166.367188 234.058594 166.277344 233.601562 C 166.1875 233.144531 166.140625 232.679688 166.140625 232.214844 Z M 166.140625 232.214844 " fill-opacity="1" fill-rule="nonzero"/></g><g clip-path="url(#94554bdf88)"><path fill="#ffa69e" d="M 166.140625 354.609375 L 166.140625 268.882812 C 166.140625 268.414062 166.1875 267.953125 166.277344 267.496094 C 166.367188 267.039062 166.503906 266.59375 166.683594 266.164062 C 166.859375 265.730469 167.078125 265.320312 167.339844 264.933594 C 167.597656 264.546875 167.890625 264.1875 168.222656 263.859375 C 168.550781 263.527344 168.910156 263.234375 169.296875 262.972656 C 169.6875 262.714844 170.097656 262.496094 170.527344 262.316406 C 170.957031 262.140625 171.402344 262.003906 171.859375 261.914062 C 172.316406 261.824219 172.777344 261.777344 173.246094 261.777344 L 200.21875 261.777344 C 200.6875 261.777344 201.148438 261.824219 201.605469 261.914062 C 202.0625 262.003906 202.507812 262.140625 202.9375 262.316406 C 203.371094 262.496094 203.777344 262.714844 204.167969 262.972656 C 204.554688 263.234375 204.914062 263.527344 205.242188 263.859375 C 205.574219 264.1875 205.867188 264.546875 206.125 264.933594 C 206.386719 265.320312 206.605469 265.730469 206.78125 266.164062 C 206.960938 266.59375 207.097656 267.039062 207.1875 267.496094 C 207.277344 267.953125 207.324219 268.414062 207.324219 268.882812 L 207.324219 354.609375 C 207.324219 355.078125 207.277344 355.539062 207.1875 355.996094 C 207.097656 356.453125 206.960938 356.898438 206.78125 357.328125 C 206.605469 357.761719 206.386719 358.167969 206.125 358.558594 C 205.867188 358.945312 205.574219 359.304688 205.242188 359.632812 C 204.914062 359.964844 204.554688 360.257812 204.167969 360.515625 C 203.777344 360.777344 203.371094 360.996094 202.9375 361.171875 C 202.507812 361.351562 202.0625 361.488281 201.605469 361.578125 C 201.148438 361.667969 200.6875 361.714844 200.21875 361.714844 L 173.246094 361.714844 C 172.777344 361.714844 172.316406 361.667969 171.859375 361.578125 C 171.402344 361.488281 170.957031 361.351562 170.527344 361.171875 C 170.097656 360.996094 169.6875 360.777344 169.296875 360.515625 C 168.910156 360.257812 168.550781 359.964844 168.222656 359.632812 C 167.890625 359.304688 167.597656 358.945312 167.339844 358.558594 C 167.078125 358.167969 166.859375 357.761719 166.683594 357.328125 C 166.503906 356.898438 166.367188 356.453125 166.277344 355.996094 C 166.1875 355.539062 166.140625 355.078125 166.140625 354.609375 Z M 166.140625 354.609375 " fill-opacity="1" fill-rule="nonzero"/></g></svg>